<svg width="600" height="433" viewBox="0 0 600 433" fill="none" xmlns="http://www.w3.org/2000/svg">
<path d="M589.344 309.194C587.294 310.073 585.364 311.625 584.629 313.095C583.778 314.244 583.586 315.994 584.125 317.338C584.418 318.069 585.042 318.984 586.355 319.203C588.608 319.646 589.564 317.256 589.875 316.207C590.545 313.953 590.356 311.158 589.344 309.194ZM586.91 320.318C586.667 320.318 586.419 320.292 586.166 320.241C584.779 320.011 583.7 319.119 583.145 317.731C582.468 316.041 582.71 313.906 583.733 312.541C584.525 310.943 586.571 309.264 588.768 308.288C588.32 307.715 587.773 307.269 587.129 307.011C585.646 306.419 582.959 306.301 580.902 307.255C579.834 307.75 579.141 308.449 578.848 309.328C578.755 309.605 578.458 309.756 578.179 309.663C577.903 309.57 577.754 309.271 577.846 308.995C578.229 307.844 579.133 306.911 580.459 306.296C582.497 305.35 585.536 305.234 587.521 306.031C588.446 306.401 589.201 307.055 589.786 307.891C590.167 307.765 590.545 307.662 590.919 307.588C593.162 306.837 595.1 306.881 596.613 307.739C598.24 308.66 599.376 310.521 599.987 313.272C600.05 313.557 599.87 313.839 599.586 313.902C599.3 313.964 599.019 313.786 598.955 313.502C598.412 311.054 597.448 309.425 596.093 308.658C594.847 307.952 593.198 307.936 591.189 308.607C590.908 308.663 590.624 308.737 590.339 308.826C591.438 311.047 591.616 314.058 590.887 316.508C590.163 318.944 588.707 320.317 586.91 320.318Z" fill="#292929"/>
<path d="M144.922 335.519C144.577 335.519 144.216 335.596 143.854 335.751C141.705 336.666 140.896 338.448 140.595 339.781C140.339 340.925 140.35 342.197 140.591 343.408C141.078 343.4 141.57 343.341 142.061 343.229C144.437 342.653 146.647 340.793 147.087 338.996C147.323 337.733 147.008 336.593 146.237 335.974C145.862 335.673 145.408 335.519 144.922 335.519ZM148.414 350.829C145.824 350.829 143.409 349.803 141.57 347.905C140.754 346.984 140.136 345.761 139.762 344.436C138.395 344.317 137.082 343.847 135.924 343.044C133.903 341.646 132.539 339.357 132.183 336.767C131.781 333.556 132.888 331.581 134.622 328.932C134.783 328.688 135.11 328.62 135.354 328.78C135.598 328.94 135.666 329.267 135.506 329.512C133.858 332.027 132.866 333.717 133.231 336.628C133.546 338.92 134.747 340.945 136.524 342.176C137.434 342.805 138.451 343.199 139.515 343.345C139.292 342.066 139.296 340.746 139.565 339.55C140.074 337.293 141.414 335.642 143.44 334.779C144.666 334.256 145.959 334.396 146.898 335.151C147.977 336.017 148.435 337.538 148.12 339.219C147.578 341.431 145.081 343.584 142.303 344.258C141.821 344.366 141.338 344.433 140.859 344.456C141.192 345.501 141.697 346.457 142.344 347.188C144.07 348.967 146.398 349.879 148.862 349.763C151.462 349.63 153.876 348.384 155.487 346.344C155.668 346.115 156 346.076 156.228 346.256C156.458 346.437 156.497 346.769 156.316 346.997C154.516 349.278 151.82 350.669 148.916 350.817C148.748 350.825 148.58 350.829 148.414 350.829Z" fill="#292929"/>
<path d="M164.521 33.8971C164.502 33.933 164.483 33.9689 164.464 34.0048C163.171 36.5134 163.672 39.1117 165.872 41.3213C167.476 42.9321 168.991 43.5204 170.024 42.9384C171.106 42.329 171.581 40.5017 171.131 38.6881C170.864 37.6118 169.604 34.1273 164.521 33.8971ZM152.704 48.1488C152.414 48.1488 152.177 47.9132 152.176 47.6228C152.156 43.1158 153.897 38.6026 156.718 35.8448C158.712 33.896 161.195 32.8578 163.923 32.8303C166.061 29.4757 170.525 27.4108 174.443 28.0604C176.741 28.4417 178.753 29.6986 180.698 30.9143C184.297 33.1609 187.404 35.1033 191.401 30.8858C191.602 30.6745 191.936 30.665 192.148 30.8657C192.359 31.0664 192.369 31.4012 192.168 31.6125C187.579 36.4574 183.797 34.0957 180.139 31.8089C178.282 30.6492 176.36 29.4483 174.27 29.1018C171.005 28.5631 167.197 30.2109 165.172 32.8852C169.39 33.3035 171.544 35.9673 172.156 38.4325C172.726 40.7288 172.047 43.0102 170.544 43.8584C169.676 44.3485 167.816 44.7678 165.124 42.067C162.721 39.6546 162.082 36.7035 163.338 33.9087C161.104 34.0608 159.129 34.9639 157.456 36.6C154.832 39.1655 153.214 43.3873 153.232 47.6185C153.233 47.9101 152.998 48.1477 152.706 48.1488C152.705 48.1488 152.704 48.1488 152.704 48.1488Z" fill="#292929"/>
<path d="M587.053 182.058C584.941 182.058 582.944 182.967 581.712 184.489C580.493 185.996 580.097 187.959 580.567 190.167C581.21 193.19 583.682 195.144 586.862 195.144C587.786 195.144 588.717 194.976 589.627 194.645C591.188 194.077 592.646 192.622 593.431 190.848C594.098 189.339 594.189 187.832 593.687 186.604C592.484 183.76 590.003 182.058 587.053 182.058ZM586.862 196.2C583.163 196.2 580.286 193.917 579.533 190.386C578.853 187.191 579.896 185.055 580.891 183.825C582.321 182.057 584.625 181.002 587.053 181.002C590.442 181.002 593.286 182.944 594.663 186.198C595.278 187.7 595.182 189.501 594.397 191.276C593.499 193.304 591.809 194.975 589.988 195.637C588.962 196.011 587.91 196.2 586.862 196.2Z" fill="#FAAD3A"/>
<path d="M58.4093 326.409C56.2968 326.409 54.3005 327.318 53.069 328.84C51.849 330.347 51.4529 332.31 51.923 334.516C52.5673 337.54 55.0388 339.495 58.2181 339.495C59.1433 339.495 60.0739 339.327 60.9843 338.996C62.5444 338.428 64.002 336.974 64.7868 335.202C65.4554 333.691 65.5462 332.183 65.0434 330.955C63.8404 328.111 61.3593 326.409 58.4093 326.409ZM58.2181 340.551C54.5192 340.551 51.642 338.269 50.89 334.737C50.2087 331.542 51.2523 329.405 52.2483 328.176C53.6784 326.407 55.9821 325.352 58.4093 325.352C61.7976 325.352 64.6421 327.295 66.0194 330.548C66.6341 332.052 66.539 333.853 65.7532 335.628C64.8554 337.656 63.1665 339.326 61.3445 339.989C60.3179 340.361 59.2669 340.551 58.2181 340.551Z" fill="#40BDDE"/>
<path d="M580.246 230.63C579.27 230.63 578.33 230.918 577.526 231.464L561.938 242.053C560.868 242.779 560.144 243.885 559.898 245.168C559.653 246.449 559.92 247.745 560.647 248.815L571.234 264.4C572.138 265.733 573.648 266.529 575.274 266.529C576.251 266.529 577.193 266.239 577.998 265.692L593.582 255.108C595.803 253.599 596.383 250.565 594.875 248.343L584.288 232.759C583.384 231.426 581.871 230.63 580.246 230.63ZM575.274 267.585C573.298 267.585 571.461 266.616 570.359 264.995L559.772 249.409C558.888 248.105 558.563 246.528 558.861 244.969C559.158 243.41 560.04 242.064 561.344 241.178L576.932 230.589C577.911 229.925 579.057 229.573 580.246 229.573C582.222 229.573 584.061 230.542 585.163 232.165L595.75 247.75C597.583 250.453 596.877 254.145 594.176 255.982L578.593 266.567C577.61 267.233 576.463 267.585 575.274 267.585Z" fill="#40BDDE"/>
<path d="M107.596 374.069C106.67 374.069 105.904 374.386 105.381 374.988C104.704 375.77 104.446 377.016 104.656 378.501L107.719 400.14C108.037 402.384 109.196 403.724 110.819 403.724C111.717 403.724 112.712 403.317 113.695 402.545L130.902 389.071C132.287 387.986 132.959 386.736 132.79 385.551C132.622 384.366 131.63 383.351 129.996 382.693L109.726 374.53C108.967 374.224 108.251 374.069 107.596 374.069ZM110.819 404.78C108.654 404.78 107.067 403.059 106.674 400.289L103.611 378.649C103.353 376.832 103.69 375.326 104.583 374.297C105.778 372.92 107.845 372.633 110.121 373.55L130.391 381.714C132.39 382.517 133.613 383.829 133.837 385.403C134.059 386.977 133.249 388.576 131.553 389.903L114.346 403.377C113.176 404.295 111.956 404.78 110.819 404.78Z" fill="#FAAD3A"/>
<path d="M274.564 12.3285C273.764 12.3285 272.858 12.6221 271.942 13.1767L253.246 24.4952C251.741 25.4057 250.925 26.5665 250.951 27.7632C250.976 28.9599 251.839 30.0858 253.381 30.935L272.533 41.4646C274.334 42.4542 276.018 42.4363 277.017 41.416C277.718 40.7009 278.072 39.5633 278.043 38.1258L277.586 16.2788C277.536 13.8421 276.377 12.3285 274.564 12.3285ZM275.042 43.2601C274.089 43.2601 273.073 42.9676 272.023 42.3898L252.873 31.8603C250.985 30.8231 249.927 29.376 249.894 27.7853C249.861 26.1957 250.857 24.7064 252.699 23.5911L271.395 12.2725C272.491 11.6092 273.557 11.2723 274.564 11.2723C276.978 11.2723 278.579 13.2284 278.642 16.2566L279.099 38.1047C279.135 39.8316 278.676 41.2322 277.772 42.1553C277.064 42.8778 276.121 43.2601 275.042 43.2601Z" fill="#FDCA81"/>
<path d="M374.996 168.334C329.173 168.334 284.95 191.38 250.472 233.229C202.891 290.977 192.905 319.918 187.54 335.466C187.261 336.272 186.995 337.047 186.735 337.788C179.939 357.209 180.263 373.946 187.701 387.533C196.529 403.662 215.365 415.24 243.688 421.948C268.762 427.887 306.588 431.159 350.199 431.16C350.203 431.16 350.212 431.16 350.217 431.16C419.03 431.16 502.702 422.658 534.532 403.663C551.742 393.392 560.689 367.299 557.881 335.566C553.334 284.163 515.784 211.947 424.925 177.586C408.691 171.446 391.892 168.334 374.996 168.334ZM350.217 432.216C350.208 432.216 350.207 432.216 350.199 432.216C306.509 432.215 268.597 428.933 243.444 422.976C214.819 416.196 195.752 404.442 186.775 388.04C179.188 374.179 178.838 357.155 185.738 337.44C185.998 336.698 186.263 335.927 186.541 335.121C191.928 319.51 201.954 290.452 249.656 232.556C284.34 190.46 328.852 167.278 374.996 167.278C392.02 167.278 408.945 170.413 425.298 176.597C466.065 192.015 500.156 216.799 523.885 248.272C543.854 274.758 556.302 305.726 558.934 335.472C561.777 367.613 552.634 394.089 535.072 404.57C503.073 423.667 419.172 432.216 350.217 432.216Z" fill="#292929"/>
<path d="M142.736 124.83C144.837 128.269 146.554 134.385 147.512 141.074C148.183 145.754 149.424 146.233 154.009 148.335C158.596 150.437 159.648 154.45 157.164 156.743C153.625 160.009 153.629 158.225 153.151 161.902C152.831 164.356 153.497 166.314 150.196 165.258C148.9 164.843 146.22 163.248 145.839 163.542C144.696 164.425 145.047 167.767 149.404 170.275C150.993 171.19 152.309 171.067 150.905 178.337C149.682 184.668 142.019 185.646 134.422 184.212C126.826 182.78 128.403 188.513 125.394 196.682C122.384 204.852 121.954 209.438 126.109 212.878C130.266 216.318 133.563 232.8 133.133 236.813C132.703 240.826 118.37 249.138 106.187 235.666C99.5954 226.494 92.1416 208.864 92.1416 208.864C92.1416 208.864 99.8806 198.115 99.738 187.652C99.5954 177.19 95.1519 137.775 109.627 126.596C124.103 115.418 141.302 122.06 142.736 124.83Z" fill="#FEFEFE"/>
<path d="M92.7421 208.929C93.7096 211.18 100.575 226.953 106.616 235.359C111.967 241.272 117.471 242.521 121.14 242.521C127.514 242.521 132.39 238.782 132.607 236.757C133.022 232.88 129.694 216.533 125.771 213.286C121.225 209.522 121.956 204.483 124.897 196.5C125.699 194.327 126.168 192.334 126.584 190.576C127.556 186.448 128.261 183.465 132.343 183.465C132.991 183.465 133.704 183.54 134.52 183.694C136.519 184.072 138.424 184.263 140.182 184.263C144.306 184.263 149.425 183.217 150.386 178.238C151.586 172.023 150.791 171.607 149.588 170.977C149.443 170.9 149.293 170.822 149.139 170.733C146.533 169.233 144.895 167.156 144.761 165.18C144.701 164.29 144.976 163.543 145.516 163.124C145.974 162.77 146.771 163.116 148.46 163.924C149.157 164.258 149.878 164.602 150.356 164.756C150.912 164.934 151.359 165.023 151.683 165.023C152.308 165.023 152.424 164.766 152.515 163.187C152.538 162.765 152.566 162.31 152.627 161.836C152.945 159.389 153.071 159.124 154.304 158.314C154.825 157.973 155.612 157.457 156.804 156.355C157.695 155.533 158.084 154.444 157.9 153.287C157.622 151.54 156.085 149.868 153.789 148.816L153.521 148.693C149.157 146.695 147.687 146.023 146.989 141.149C145.997 134.224 144.282 128.377 142.284 125.105C141.614 123.815 135.981 120.864 128.021 120.864C123.411 120.864 116.534 121.932 109.949 127.015C97.7053 136.472 99.2675 167.045 100.018 181.738C100.14 184.122 100.245 186.182 100.266 187.646C100.399 197.414 93.923 207.224 92.7421 208.929ZM121.14 243.577C117.256 243.577 111.443 242.266 105.795 236.021C99.2073 226.859 91.7292 209.248 91.6553 209.071C91.5835 208.901 91.6046 208.707 91.7123 208.557C91.7894 208.451 99.3478 197.824 99.2094 187.661C99.1893 186.216 99.0848 184.166 98.9633 181.792C98.2028 166.919 96.6217 135.973 109.304 126.18C116.124 120.913 123.246 119.807 128.021 119.807C135.779 119.807 142.195 122.638 143.203 124.588C145.256 127.944 147.023 133.938 148.035 141C148.651 145.302 149.67 145.768 153.96 147.732L154.229 147.856C156.886 149.073 158.604 150.993 158.942 153.121C159.184 154.639 158.679 156.062 157.522 157.131C156.265 158.292 155.433 158.836 154.884 159.197C153.973 159.796 153.956 159.807 153.674 161.972C153.616 162.42 153.591 162.85 153.569 163.247C153.474 164.914 153.319 166.815 150.035 165.762C149.487 165.586 148.733 165.226 148.004 164.877C147.368 164.572 146.437 164.127 146.07 164.048C145.879 164.267 145.784 164.652 145.815 165.108C145.901 166.362 146.957 168.258 149.668 169.819C149.807 169.899 149.945 169.971 150.078 170.042C151.799 170.943 152.709 171.777 151.423 178.439C150.566 182.876 146.574 185.319 140.182 185.319C138.359 185.319 136.388 185.121 134.325 184.733C133.583 184.592 132.917 184.521 132.343 184.521C129.227 184.521 128.641 186.452 127.611 190.819C127.189 192.606 126.711 194.632 125.889 196.866C122.691 205.544 122.832 209.481 126.445 212.472C130.779 216.058 134.111 232.633 133.657 236.871C133.368 239.571 127.984 243.577 121.14 243.577Z" fill="#292929"/>
<path d="M99.3564 307.52C102.032 308.668 127.257 310.004 127.257 310.004C127.257 310.004 138.341 274.653 133.756 234.139C124.582 242.165 114.262 240.253 103.944 231.845C110.439 251.72 107.384 292.613 99.3564 307.52Z" fill="#292929"/>
<path d="M138.167 150.677C138.726 152.465 140.005 153.658 141.023 153.341C142.042 153.022 142.415 151.314 141.858 149.525C141.3 147.738 140.02 146.545 139.004 146.865C137.984 147.183 137.608 148.889 138.167 150.677Z" fill="#292929"/>
<path d="M139.883 147.72C139.834 147.72 139.784 147.714 139.734 147.699C139.454 147.617 139.295 147.323 139.377 147.043L140.333 143.794C140.415 143.515 140.709 143.353 140.989 143.437C141.269 143.519 141.428 143.813 141.346 144.092L140.39 147.342C140.322 147.571 140.112 147.72 139.883 147.72Z" fill="#292929"/>
<path d="M114.453 255.541C111.503 233.783 101.775 219.388 93.1712 206.051C91.851 204.005 90.6299 204.296 90.068 204.408C85.954 205.225 81.3626 207.156 82.5393 209.677C82.7896 210.21 83.1719 210.758 83.6493 211.368C81.8643 211.728 79.7276 212.176 77.1895 212.735C67.6327 214.835 61.7199 218.616 55.7956 224.539C49.8712 230.462 19.5775 267.195 11.1699 276.558C22.254 297.963 41.2724 301.115 41.2724 301.115C41.2724 301.115 58.6526 283.632 69.5445 270.255C69.1611 272.929 67.826 297.774 64.0035 307.519C70.7538 311.436 89.5177 311.249 99.9533 310.802C101.666 312.374 108.339 310.959 108.339 310.959C108.339 310.959 117.51 278.091 114.453 255.541Z" fill="#40BDDE"/>
<path d="M82.252 130.754C77.236 132.617 71.6464 137.203 68.6361 156.838C67.1807 166.334 63.6571 176.528 64.3204 186.212C64.9415 195.275 72.7914 197.747 80.7933 199.347C87.8426 200.757 115.241 207.29 116.969 195.493C118.984 181.73 97.2916 174.819 100.403 162.045C101.036 159.449 103.644 156.222 106.329 155.621C109.755 154.856 110.773 157.784 113.438 159.58C116.684 161.769 118.627 160.49 120.577 157.205C122.42 154.1 121.73 149.127 121.438 145.641C121.056 141.074 120.513 139.424 124.476 138.117C129.833 136.351 134.42 132.721 129.264 126.597C136.143 134.766 139.582 133.477 145.171 129.894C150.761 126.31 151.048 123.014 148.898 116.852C146.747 110.688 140.155 101.229 128.546 102.662C116.937 104.095 118.083 107.248 104.181 110.115C90.2782 112.982 81.3922 117.138 82.252 130.754Z" fill="#292929"/>
<path d="M134.136 141.457C134.077 141.457 134.018 141.447 133.958 141.426C133.684 141.328 133.54 141.026 133.638 140.751C134.013 139.7 136.133 134.407 141.051 133.389C141.336 133.331 141.616 133.514 141.675 133.799C141.734 134.084 141.551 134.364 141.264 134.424C136.901 135.326 134.974 140.148 134.633 141.106C134.556 141.322 134.352 141.457 134.136 141.457Z" fill="#292929"/>
<path d="M99.5479 310.341C99.5374 310.341 99.5257 310.341 99.5152 310.34C99.2236 310.322 99.0029 310.072 99.0208 309.781C99.0494 309.322 99.1465 308.07 99.2881 306.25C100.115 295.626 102.314 267.403 101.507 260.957C100.663 254.21 102.492 252.519 105.261 249.96C105.606 249.641 105.97 249.304 106.348 248.941C104.985 248.071 101.407 245.798 98.6987 244.144C95.8701 242.416 95.248 240.069 93.5844 233.798C93.088 231.926 92.5251 229.804 91.7783 227.214C89.5085 219.332 86.2753 215.405 84.1354 212.807C83.6105 212.17 83.1574 211.62 82.7792 211.092C82.6102 210.854 82.6641 210.524 82.9018 210.355C83.1405 210.185 83.47 210.239 83.639 210.477C83.996 210.976 84.4386 211.513 84.9508 212.135C87.1457 214.801 90.4633 218.83 92.7933 226.922C93.5433 229.523 94.1316 231.742 94.6048 233.527C96.1891 239.5 96.7827 241.735 99.2501 243.242C102.655 245.324 107.428 248.377 107.477 248.408C107.611 248.494 107.7 248.637 107.717 248.796C107.734 248.954 107.679 249.113 107.566 249.226C107.006 249.785 106.475 250.277 105.977 250.736C103.27 253.239 101.779 254.617 102.556 260.825C103.375 267.378 101.171 295.679 100.341 306.332C100.201 308.144 100.103 309.39 100.075 309.847C100.057 310.126 99.8257 310.341 99.5479 310.341Z" fill="#FEFEFE"/>
<path d="M173.311 241.208L169.298 253.056C169.298 253.056 159.743 235.667 153.627 228.023C147.912 220.879 139.696 216.407 133.186 213.979C128.793 206.71 122.588 205.661 122.588 205.661C122.588 205.661 122.096 207.382 123.005 209.559C123.914 211.735 133.752 228.787 131.46 255.923C129.168 283.059 121.332 310.004 121.332 310.004H127.257C127.257 310.004 127.302 309.854 127.387 309.578C131.844 310.151 140.919 311.065 141.206 309.049C141.589 306.374 146.749 284.971 149.806 278.282C158.978 295.288 167.489 298.759 179.803 293.586C188.605 289.889 195.861 260.319 196.817 248.662C197.007 248.47 173.311 241.208 173.311 241.208Z" fill="#40BDDE"/>
<path d="M127.257 310.532C127.206 310.532 127.154 310.525 127.102 310.51C126.824 310.424 126.666 310.129 126.752 309.85C126.87 309.462 138.613 270.991 140.311 263.641C142.054 256.079 141.998 255.172 140.862 252.95C139.432 250.158 138.205 247.707 138.205 247.707C138.083 247.462 138.168 247.165 138.4 247.02C139.69 246.224 142.915 243.685 142.367 241.53C141.147 236.744 136.5 220.885 133.102 214.857L132.992 214.664C132.847 214.411 132.936 214.088 133.188 213.943C133.442 213.798 133.764 213.887 133.91 214.14L134.023 214.339C137.471 220.458 142.162 236.447 143.391 241.27C144.112 244.101 140.591 246.807 139.36 247.653C139.769 248.468 140.728 250.373 141.801 252.469C143.13 255.063 143.078 256.342 141.339 263.878C139.635 271.265 127.881 309.77 127.762 310.159C127.693 310.385 127.484 310.532 127.257 310.532Z" fill="#FEFEFE"/>
<path d="M149.805 278.809C149.732 278.809 149.658 278.794 149.587 278.762C149.322 278.64 149.205 278.327 149.326 278.062C157.917 259.258 154.715 252.489 152.802 248.445C152.469 247.741 152.181 247.133 151.981 246.534C151.89 246.259 152.039 245.959 152.316 245.866C152.595 245.774 152.893 245.925 152.985 246.2C153.163 246.739 153.438 247.32 153.757 247.993C155.748 252.203 159.082 259.249 150.286 278.501C150.197 278.694 150.006 278.809 149.805 278.809Z" fill="#292929"/>
<path d="M172.406 260.75C172.208 260.75 172.019 260.64 171.928 260.45C171.907 260.406 169.798 255.989 167.904 251.444C167.792 251.175 167.919 250.866 168.188 250.753C168.457 250.646 168.767 250.767 168.879 251.038C170.762 255.559 172.861 259.95 172.882 259.994C173.008 260.257 172.896 260.572 172.633 260.698C172.559 260.734 172.482 260.75 172.406 260.75Z" fill="#292929"/>
<path d="M174.84 236.669C176.989 229.933 180.143 211.731 180.859 204.995C181.575 198.259 177.563 188.799 182.293 182.78C187.022 176.761 190.033 173.75 191.322 170.74C192.612 167.731 195.622 167.301 197.198 170.31C198.775 173.32 196.338 178.624 192.756 182.35C201.498 176.761 202.214 178.766 204.937 174.468C207.661 170.167 212.964 159.131 216.405 159.418C219.27 155.548 222.567 157.698 223.14 163.001C224.86 162.859 226.437 166.871 225.291 172.891C229.446 175.327 229.016 184.212 223.14 190.949C217.263 197.686 206.084 201.698 203.647 207.145C201.212 212.591 197.198 244.552 197.198 244.552L174.84 236.669Z" fill="#FEFEFE"/>
<path d="M175.494 236.34L196.756 243.837C197.355 239.14 200.89 212.017 203.165 206.929C204.535 203.867 208.478 201.278 212.652 198.538C216.296 196.145 220.063 193.671 222.741 190.602C226.222 186.612 228.043 181.407 227.38 177.34C227.072 175.451 226.258 174.069 225.023 173.345C224.83 173.232 224.729 173.011 224.77 172.791C225.608 168.394 224.964 165.195 223.954 163.975C223.784 163.77 223.521 163.526 223.228 163.526C222.959 163.526 222.643 163.326 222.614 163.058C222.285 160.016 221.01 157.972 219.443 157.972C218.585 157.972 217.681 158.58 216.828 159.732C216.719 159.879 216.544 159.963 216.36 159.944C216.36 159.944 216.359 159.944 216.358 159.944C213.885 159.944 210.025 166.711 207.471 171.19C206.703 172.538 205.977 173.812 205.383 174.749C203.74 177.343 202.747 177.781 200.571 178.74C198.958 179.449 196.749 180.422 193.039 182.794C192.814 182.937 192.515 182.89 192.346 182.685C192.177 182.478 192.189 182.177 192.375 181.983C195.62 178.608 198.25 173.455 196.73 170.555C196.132 169.413 195.301 168.785 194.389 168.785C193.353 168.785 192.387 169.593 191.807 170.948C190.882 173.105 189.166 175.186 186.568 178.338C185.436 179.709 184.154 181.264 182.707 183.106C179.748 186.873 180.378 192.134 180.987 197.223C181.321 200.02 181.638 202.662 181.384 205.05C180.707 211.414 177.67 229.147 175.494 236.34ZM197.198 245.08C197.138 245.08 197.079 245.07 197.021 245.051L174.664 237.167C174.395 237.072 174.249 236.78 174.336 236.508C176.502 229.722 179.644 211.416 180.334 204.938C180.575 202.668 180.266 200.085 179.939 197.348C179.304 192.046 178.647 186.563 181.877 182.453C183.331 180.602 184.618 179.042 185.752 177.666C188.294 174.584 189.972 172.549 190.836 170.533C191.588 168.776 192.917 167.728 194.389 167.728C195.693 167.728 196.888 168.58 197.665 170.065C199.076 172.756 197.638 176.829 195.176 180.262C197.432 178.968 199.004 178.276 200.147 177.772C202.237 176.851 203.019 176.507 204.491 174.184C205.072 173.267 205.791 172.004 206.554 170.667C210.174 164.318 213.399 159.046 216.144 158.888C217.423 157.264 218.636 156.916 219.443 156.916C221.525 156.916 223.136 159.098 223.612 162.516C223.954 162.599 224.364 162.814 224.767 163.301C225.824 164.578 226.728 167.776 225.873 172.636C227.21 173.559 228.088 175.118 228.423 177.17C229.134 181.534 227.216 187.079 223.538 191.296C220.764 194.475 216.935 196.989 213.232 199.421C209.19 202.074 205.373 204.58 204.13 207.36C201.753 212.673 197.762 244.3 197.721 244.619C197.701 244.776 197.612 244.918 197.475 245.002C197.391 245.054 197.295 245.08 197.198 245.08Z" fill="#292929"/>
<path d="M197.914 192.194C197.675 192.194 197.459 192.031 197.401 191.788C196.676 188.745 193.953 183.783 192.463 182.789C192.22 182.627 192.154 182.299 192.316 182.056C192.478 181.813 192.805 181.748 193.048 181.911C194.904 183.147 197.698 188.473 198.428 191.543C198.496 191.828 198.321 192.112 198.037 192.179C197.996 192.19 197.955 192.194 197.914 192.194Z" fill="#292929"/>
<path d="M215.401 189.328C215.207 189.328 215.021 189.222 214.928 189.037C214.395 187.969 208.049 180.361 205.63 179.555C205.354 179.463 205.204 179.164 205.296 178.886C205.389 178.611 205.686 178.461 205.965 178.553C208.739 179.478 215.294 187.406 215.873 188.564C216.003 188.826 215.898 189.142 215.637 189.272C215.561 189.31 215.481 189.328 215.401 189.328Z" fill="#292929"/>
<path d="M214.111 190.045C213.911 190.045 213.72 189.931 213.631 189.738C213.509 189.474 213.624 189.159 213.889 189.037C215.548 188.272 219.198 183.591 220.184 178.242C220.689 175.5 221.533 173.796 222.762 173.034C223.9 172.329 225.159 172.571 226.008 172.813C226.289 172.893 226.45 173.185 226.371 173.465C226.29 173.745 225.998 173.905 225.717 173.829C224.661 173.526 223.922 173.558 223.319 173.932C222.37 174.521 221.665 176.035 221.223 178.434C220.208 183.941 216.403 189.04 214.331 189.996C214.259 190.029 214.184 190.045 214.111 190.045Z" fill="#292929"/>
<path d="M212.247 185.314C212.099 185.314 211.954 185.253 211.849 185.132C211.657 184.912 211.68 184.579 211.901 184.387C215.025 181.671 216.305 177.71 217.462 171.787C218.525 166.334 220.599 163.3 223.622 162.769C223.907 162.715 224.183 162.908 224.233 163.196C224.284 163.484 224.092 163.757 223.804 163.808C221.256 164.257 219.471 167.009 218.499 171.988C217.298 178.138 215.947 182.269 212.594 185.185C212.493 185.272 212.371 185.314 212.247 185.314Z" fill="#292929"/>
<path d="M208.95 181.589C208.846 181.589 208.74 181.558 208.647 181.493C208.408 181.325 208.351 180.995 208.519 180.756C210.074 178.547 212.027 172.23 213.594 167.153C214.768 163.357 215.781 160.079 216.514 158.735C216.653 158.479 216.974 158.384 217.23 158.525C217.487 158.664 217.581 158.985 217.441 159.241C216.759 160.492 215.712 163.879 214.604 167.465C212.931 172.88 211.034 179.018 209.383 181.365C209.28 181.511 209.117 181.589 208.95 181.589Z" fill="#292929"/>
<path d="M68.3974 271.93C68.277 271.93 68.1556 271.889 68.0563 271.804C67.8334 271.615 67.807 271.283 67.9961 271.06C71.2165 267.272 77.6954 260.408 77.7609 260.339C77.9605 260.128 78.2943 260.117 78.5066 260.318C78.7189 260.518 78.7284 260.852 78.5277 261.065C78.4633 261.133 72.0034 267.977 68.8009 271.744C68.6964 271.868 68.5474 271.93 68.3974 271.93Z" fill="#292929"/>
<path d="M173.906 234.965C171.794 238.926 170.572 245.35 171.002 245.923C171.432 246.497 187.109 247.772 197.804 255.429C200.24 256.575 201.019 245.285 200.638 243.979C199.635 240.539 175.197 233.532 173.906 234.965Z" fill="#292929"/>
<path d="M114.262 255.114C114.138 255.114 114.015 255.071 113.915 254.984C113.866 254.943 109.051 250.762 106.811 249.27C106.569 249.108 106.503 248.78 106.665 248.538C106.826 248.295 107.153 248.229 107.397 248.391C109.693 249.92 114.409 254.013 114.609 254.187C114.828 254.379 114.851 254.711 114.66 254.932C114.556 255.052 114.409 255.114 114.262 255.114Z" fill="#FEFEFE"/>
<path d="M131.669 252.966C131.534 252.966 131.398 252.914 131.295 252.811C131.089 252.604 131.089 252.271 131.295 252.065C133.313 250.046 135.893 248.499 137.599 247.474C138.023 247.221 138.385 247.003 138.662 246.824C138.907 246.664 139.235 246.734 139.393 246.978C139.552 247.223 139.482 247.549 139.238 247.709C138.953 247.894 138.579 248.118 138.143 248.379C136.48 249.378 133.968 250.885 132.043 252.811C131.939 252.914 131.804 252.966 131.669 252.966Z" fill="#FEFEFE"/>
<path d="M116.318 177.904C115.76 172.693 111.652 167.352 106.776 170.468C102.535 173.176 101.244 180.467 105.126 183.923C106.778 185.394 109.452 186.082 111.687 185.645C115.441 184.909 116.696 181.436 116.318 177.904Z" fill="#FAAD3A"/>
<path d="M127.083 67.0492C123.231 67.0492 119.367 67.2182 115.596 67.552C56.7644 72.7613 19.9633 105.851 6.21751 165.901C0.17483 192.295 -5.00068 254.449 17.5667 278.11C41.7226 303.434 60.1115 306.253 99.3663 306.992C112.921 307.249 124.303 307.678 134.344 308.057C146.019 308.498 156.1 308.879 166.387 308.879C166.387 308.879 166.388 308.879 166.389 308.879C174.541 308.879 182.013 308.643 189.904 308.137L192.343 307.984C221.682 306.157 266.017 303.395 270.82 238.303C274.552 187.698 261.042 144.282 231.751 112.749C205.168 84.1326 166.04 67.0492 127.083 67.0492ZM166.389 309.935C166.388 309.935 166.388 309.935 166.387 309.935C156.08 309.935 145.989 309.554 134.304 309.112C124.268 308.734 112.891 308.304 99.3472 308.049C59.7788 307.303 41.2346 304.453 16.803 278.838C-6.06114 254.868 -0.896183 192.24 5.18769 165.665C19.0475 105.118 56.1634 71.7537 115.503 66.5C119.304 66.1641 123.2 65.993 127.083 65.993C166.328 65.993 205.745 83.2032 232.524 112.03C253.093 134.173 276.617 174.067 271.873 238.381C267.002 304.392 222.113 307.188 192.409 309.038L189.972 309.193C182.058 309.699 174.563 309.935 166.389 309.935Z" fill="#292929"/>
<path d="M181.067 92.4381C188.224 90.5707 211.101 86.2127 223.085 83.7232C235.068 81.2315 248.141 79.5204 249.853 80.2989C251.564 81.0773 232.577 105.043 223.707 114.536C220.751 116.559 216.704 112.824 216.704 112.824C208.301 121.539 198.806 124.807 197.252 125.119C195.695 125.429 194.916 115.782 194.76 110.022C194.605 104.265 195.627 103.143 190.871 100.841C176.086 93.6813 181.067 92.4381 181.067 92.4381Z" fill="#40BDDE"/>
<path d="M197.251 125.647C197.019 125.647 196.806 125.493 196.742 125.259C196.666 124.977 196.831 124.686 197.112 124.61C197.893 124.326 200.733 119.726 202.807 116.367C205.035 112.757 207.14 109.348 208.395 108.094C210.757 105.731 232.526 90.8709 241.767 84.617L196.514 102.577C196.243 102.684 195.936 102.552 195.827 102.281C195.72 102.01 195.852 101.704 196.123 101.596L245.923 81.8317C246.184 81.7261 246.484 81.8486 246.6 82.1064C246.715 82.3651 246.606 82.6683 246.354 82.795C244.816 83.6104 211.612 106.37 209.142 108.841C207.975 110.008 205.804 113.523 203.705 116.922C200.1 122.762 198.413 125.349 197.391 125.628C197.344 125.641 197.297 125.647 197.251 125.647Z" fill="#292929"/>
<path d="M217.638 113.975C217.53 113.975 217.421 113.942 217.327 113.874L217.099 113.707C213.908 111.375 209.937 108.464 209.005 108.939C208.744 109.068 208.427 108.963 208.296 108.702C208.165 108.441 208.271 108.125 208.532 107.994C209.97 107.276 212.817 109.267 217.723 112.854L217.949 113.02C218.186 113.193 218.237 113.524 218.064 113.758C217.961 113.9 217.8 113.975 217.638 113.975Z" fill="#292929"/>
<path d="M258.253 199.142C252.268 199.69 248.869 203.408 249.469 213.987C250.068 224.568 247.672 235.49 251.865 239.583C256.058 243.68 266.636 243.682 276.42 243.851C286.203 244.02 298.872 243.733 302.624 243.68C311.457 243.552 314.601 242.017 315.799 235.104C316.505 231.036 314.812 208.083 314.752 205.669C314.601 199.654 310.708 198.885 302.174 198.502C293.992 198.133 263.844 198.629 258.253 199.142Z" fill="#FAAD3A"/>
<path d="M282.283 227.153C282.244 227.153 282.204 227.151 282.165 227.151C277.955 227.088 274.53 223.546 272.017 220.466C267.375 214.77 256.93 203.096 254.392 200.925C254.17 200.736 254.144 200.402 254.334 200.181C254.522 199.959 254.856 199.935 255.078 200.123C257.65 202.321 268.171 214.075 272.837 219.797C275.204 222.699 278.406 226.038 282.18 226.095C284.881 226.112 287.703 224.474 290.576 221.159C298.484 212.036 310.22 200.543 310.337 200.428C310.548 200.224 310.882 200.228 311.084 200.436C311.289 200.644 311.285 200.979 311.076 201.183C310.958 201.298 299.254 212.76 291.375 221.85C288.285 225.416 285.309 227.153 282.283 227.153Z" fill="#292929"/>
<path d="M251.864 240.111C251.67 240.111 251.484 240.004 251.391 239.818C251.261 239.557 251.368 239.241 251.629 239.111C253.002 238.426 260.005 231.817 265.117 226.991C269.352 222.994 271.776 220.714 272.351 220.364C272.6 220.21 272.924 220.29 273.077 220.539C273.229 220.787 273.151 221.112 272.901 221.265C272.394 221.575 269.212 224.579 265.841 227.76C258.914 234.299 253.503 239.358 252.1 240.055C252.024 240.094 251.944 240.111 251.864 240.111Z" fill="#292929"/>
<path d="M311.559 241.818C311.38 241.818 311.203 241.725 311.104 241.557C310.767 240.985 306.834 236.723 303.029 232.601C298.007 227.161 292.814 221.536 292.029 220.289C291.873 220.042 291.947 219.715 292.193 219.56C292.443 219.404 292.767 219.481 292.922 219.725C293.656 220.891 299.048 226.732 303.805 231.885C308.651 237.135 311.641 240.384 312.016 241.023C312.163 241.275 312.079 241.597 311.826 241.746C311.743 241.795 311.651 241.818 311.559 241.818Z" fill="#292929"/>
<path d="M501.171 65.7547C498.266 53.4317 471.508 37.5893 460.066 41.9906C448.624 46.3909 463.234 51.4956 463.234 51.4956C445.631 48.327 437.181 50.4384 435.421 54.8407C433.66 59.241 441.054 61.0017 441.054 61.0017C429.083 61.3534 415.705 70.6841 417.641 77.1968C419.577 83.7106 427.499 81.3341 427.499 81.3341C416.232 90.3997 418.07 99.6195 429.826 98.5305C417.465 107.827 415.706 124.903 420.458 131.064C425.21 137.226 429.824 127.9 429.824 127.9C424.858 141.627 432.251 150.605 439.293 139.163C437.709 154.83 451.616 156.942 456.017 149.197C460.242 164.16 470.276 161.871 472.037 154.478C477.494 161.343 488.232 159.055 490.345 151.661C496.33 158.703 501.611 152.277 501.083 146.82C507.244 154.037 516.927 154.917 518.863 141.803C527.664 148.317 532.066 148.141 529.689 132.561C544.389 137.93 552.134 121.558 535.234 107.476C546.501 110.468 545.268 98.8495 529.161 91.8964C540.515 91.6323 541.923 83.8859 536.29 78.1654C530.658 72.4438 521.152 61.3534 501.171 65.7547Z" fill="#292929"/>
<path d="M445.221 95.8241C443.502 106.142 446.56 109.202 449.616 116.464C452.675 123.725 448.399 131.378 456.545 140.445C464.14 148.902 475.607 148.377 475.607 148.377L478.855 161.563L506.947 154.3L500.833 127.833C500.833 127.833 506.565 124.681 504.845 113.405C503.126 102.13 502.935 74.2305 475.607 78.4343C448.279 82.637 447.707 87.6055 445.221 95.8241Z" fill="#FEFEFE"/>
<path d="M475.607 147.849C475.848 147.849 476.062 148.014 476.119 148.251L479.239 160.918L506.317 153.919L500.317 127.953C500.265 127.723 500.371 127.485 500.577 127.371C500.63 127.343 505.96 124.212 504.322 113.485C504.146 112.328 503.986 110.996 503.81 109.541C502.414 97.9448 500.075 78.5355 480.892 78.5355C479.256 78.5355 477.505 78.6771 475.687 78.957C449.612 82.9675 448.243 87.5547 445.973 95.1542L445.727 95.977C444.386 104.052 446.044 107.546 448.338 112.38C448.911 113.585 449.502 114.831 450.103 116.26C451.281 119.055 451.402 121.837 451.531 124.782C451.74 129.583 451.957 134.548 456.938 140.094C463.574 147.481 473.321 147.855 475.208 147.855C475.716 147.855 475.591 147.849 475.607 147.849ZM478.855 162.092C478.76 162.092 478.667 162.066 478.584 162.017C478.463 161.945 478.376 161.828 478.342 161.69L475.194 148.911C473.199 148.91 463.074 148.503 456.152 140.799C450.919 134.972 450.683 129.583 450.476 124.828C450.351 121.98 450.233 119.29 449.13 116.67C448.538 115.263 447.952 114.028 447.384 112.833C445.097 108.013 443.289 104.206 444.701 95.7383L444.961 94.8521C447.35 86.8533 448.79 82.0253 475.527 77.9134C477.397 77.6251 479.202 77.4793 480.892 77.4793C501.012 77.4793 503.42 97.4705 504.859 109.414C505.032 110.857 505.192 112.179 505.367 113.327C506.896 123.352 502.7 127.169 501.429 128.075L507.462 154.182C507.526 154.46 507.356 154.74 507.079 154.812L478.987 162.075C478.943 162.086 478.899 162.092 478.855 162.092Z" fill="#292929"/>
<path d="M511.333 103.775C510.379 98.0161 509.209 92.5691 506.232 87.438C504.397 84.2746 502.74 81.0182 499.636 78.91C490.919 72.9856 479.18 73.3405 469.26 75.398C461.382 77.0331 452.612 79.8247 446.507 85.2558C444.478 87.0598 436.262 95.2509 441.583 97.6168C444.699 99.0037 448.133 96.0621 450.483 94.0774C450.588 94.3763 450.756 94.6974 451 95.065C452.585 97.4415 456.545 97.7056 459.186 97.1775C466.051 96.1212 472.653 91.6323 477.67 86.6152C476.614 88.1995 475.293 90.312 475.822 92.4244C476.878 94.801 479.254 95.065 481.367 95.065C485.856 94.801 490.081 91.1042 493.249 88.1995C490.609 93.2166 487.704 98.2337 487.44 104.043C487.176 106.684 487.44 109.588 488.496 111.965C489.817 115.133 492.721 115.133 495.362 113.285C494.042 117.51 493.249 121.471 495.098 125.696C496.199 128.214 499.674 132.473 504.516 131.593C508.383 130.89 509.099 121.82 510.501 118.654C513.117 112.745 512.398 110.207 511.333 103.775Z" fill="#292929"/>
<path d="M439.927 99.5138C437.563 99.5138 435.276 98.6731 434.639 96.2754C434.267 94.8823 434.488 93.1944 434.818 92.078C435.459 89.9043 437.434 86.8275 439.221 85.2199C439.435 85.0245 439.769 85.0414 439.967 85.259C440.161 85.4755 440.144 85.8103 439.926 86.0047C438.291 87.4771 436.415 90.3954 435.831 92.378C435.541 93.356 435.344 94.8221 435.66 96.004C436.454 98.9836 440.662 98.465 441.498 98.3287C444.002 97.9253 445.859 97.3517 447.341 96.5226C447.595 96.3821 447.918 96.4719 448.06 96.7265C448.203 96.981 448.112 97.3031 447.857 97.4447C446.264 98.3361 444.296 98.9477 441.665 99.3712C441.097 99.4631 440.509 99.5138 439.927 99.5138Z" fill="#FEFEFE"/>
<path d="M467.8 130.534C467.791 130.534 467.781 130.534 467.772 130.533C464.297 130.341 462.125 129.538 461.132 128.077C459.899 126.263 460.687 123.895 461.45 121.605C461.598 121.158 461.747 120.712 461.878 120.276C463.048 116.372 460.368 111.66 457.382 108.934C455.025 106.783 452.02 106.378 450.089 106.93C448.993 107.244 448.24 107.862 448.025 108.628C447.944 108.908 447.658 109.071 447.372 108.993C447.092 108.913 446.929 108.621 447.007 108.341C447.325 107.215 448.341 106.331 449.799 105.914C452.014 105.281 455.437 105.728 458.094 108.155C461.424 111.194 464.198 116.215 462.889 120.579C462.756 121.026 462.604 121.481 462.452 121.938C461.77 123.984 461.066 126.101 462.006 127.483C462.79 128.637 464.75 129.308 467.83 129.479C468.121 129.495 468.344 129.744 468.327 130.035C468.313 130.316 468.079 130.534 467.8 130.534Z" fill="#292929"/>
<path d="M466.184 107.19C466.069 107.19 465.953 107.152 465.856 107.076C465.628 106.894 465.59 106.561 465.77 106.333C467.615 104.004 472.956 99.1855 482.686 104.725C482.939 104.869 483.028 105.191 482.884 105.446C482.74 105.698 482.417 105.787 482.164 105.643C473.47 100.695 468.681 104.362 466.599 106.989C466.494 107.121 466.34 107.19 466.184 107.19Z" fill="#292929"/>
<path d="M478.592 115.353C479.476 117.004 479.434 118.752 478.493 119.256C477.554 119.762 476.071 118.833 475.184 117.181C474.298 115.533 474.346 113.785 475.283 113.282C476.225 112.777 477.705 113.704 478.592 115.353Z" fill="#292929"/>
<path d="M475.931 114.068C475.846 114.068 475.761 114.048 475.682 114.007L472.692 112.414C472.435 112.277 472.337 111.957 472.474 111.7C472.613 111.441 472.934 111.347 473.189 111.482L476.179 113.074C476.436 113.212 476.534 113.531 476.397 113.788C476.302 113.967 476.119 114.068 475.931 114.068Z" fill="#292929"/>
<path d="M458.671 117.073C459.554 118.723 459.511 120.471 458.57 120.976C457.631 121.481 456.148 120.551 455.263 118.899C454.376 117.252 454.422 115.504 455.361 115.001C456.304 114.496 457.783 115.421 458.671 117.073Z" fill="#292929"/>
<path d="M456.009 115.787C455.924 115.787 455.84 115.766 455.761 115.725L452.77 114.133C452.514 113.995 452.416 113.675 452.553 113.417C452.69 113.16 453.011 113.065 453.268 113.2L456.258 114.793C456.515 114.93 456.612 115.249 456.476 115.507C456.381 115.685 456.198 115.787 456.009 115.787Z" fill="#292929"/>
<path d="M465.744 133.317C467.433 136.601 469.45 138.463 471.35 138.463C474.074 138.463 476.232 134.739 476.969 128.877C470.348 133.09 468.132 133.486 465.744 133.317ZM471.35 139.519C468.83 139.519 466.354 137.18 464.38 132.931C464.299 132.758 464.317 132.557 464.428 132.401C464.537 132.247 464.719 132.164 464.911 132.182C465.452 132.236 466.01 132.292 466.559 132.292C468.597 132.292 471.012 131.49 477.326 127.392C477.496 127.281 477.712 127.279 477.887 127.382C478.06 127.487 478.158 127.681 478.139 127.883C477.479 135.061 474.877 139.519 471.35 139.519Z" fill="#292929"/>
<path d="M469.874 139.11C469.829 139.11 469.781 139.105 469.735 139.092C469.454 139.015 469.288 138.725 469.365 138.443C470.296 135.03 474.086 132.48 476.581 132.627C476.872 132.646 477.094 132.896 477.076 133.188C477.057 133.478 476.832 133.7 476.515 133.682C474.392 133.546 471.168 135.851 470.384 138.721C470.32 138.956 470.107 139.11 469.874 139.11Z" fill="#292929"/>
<path d="M406.382 228.875C411.398 224.004 435.333 192.33 444.649 181.006C453.965 169.683 464.714 169.397 479.333 169.253C475.734 154.83 476.69 154.511 477.407 154.653C478.123 154.797 491.78 157.776 505.397 148.316C509.005 147.348 508.858 161.802 512.298 163.664C515.737 165.528 538.669 160.797 549.993 172.121C561.315 183.443 569.197 210.245 569.197 210.245C563.034 220.134 521.183 251.234 468.584 236.903C467.581 232.459 460.414 225.579 458.265 216.838C449.379 228.447 443.072 237.045 443.072 237.045C443.072 237.045 414.838 235.182 406.382 228.875Z" fill="#FAAD3A"/>
<path d="M490.301 173.597C484.543 173.597 480.53 171.268 478.952 169.619C478.75 169.407 478.758 169.074 478.969 168.872C479.179 168.67 479.513 168.679 479.716 168.889C482.677 171.985 494.826 177.547 511.231 162.983C511.449 162.789 511.783 162.808 511.976 163.028C512.171 163.245 512.151 163.579 511.932 163.773C503.451 171.303 496.016 173.597 490.301 173.597Z" fill="#292929"/>
<path d="M487.265 173.462C487.038 173.462 486.829 173.315 486.759 173.087C486.569 172.459 482.065 157.661 481.591 155.565C481.525 155.28 481.704 154.997 481.989 154.933C482.274 154.868 482.555 155.047 482.621 155.331C483.087 157.39 487.723 172.627 487.771 172.78C487.855 173.059 487.698 173.355 487.419 173.439C487.367 173.455 487.316 173.462 487.265 173.462Z" fill="#292929"/>
<path d="M493.474 173.366C493.249 173.366 493.041 173.221 492.969 172.995L487.428 155.319C487.342 155.041 487.497 154.744 487.775 154.657C488.052 154.572 488.349 154.725 488.437 155.003L493.978 172.679C494.065 172.958 493.91 173.254 493.632 173.341C493.58 173.357 493.527 173.366 493.474 173.366Z" fill="#292929"/>
<path d="M499.972 171.454C499.75 171.454 499.543 171.313 499.47 171.091L493.928 154.179C493.837 153.902 493.988 153.603 494.266 153.512C494.538 153.421 494.841 153.574 494.933 153.85L500.475 170.762C500.566 171.039 500.413 171.337 500.137 171.428C500.082 171.446 500.027 171.454 499.972 171.454Z" fill="#292929"/>
<path d="M505.898 168.397C505.67 168.397 505.459 168.248 505.391 168.018L500.709 152.158C500.625 151.878 500.786 151.584 501.065 151.502C501.343 151.417 501.638 151.578 501.722 151.859L506.404 167.719C506.486 167.999 506.327 168.293 506.047 168.375C505.997 168.39 505.947 168.397 505.898 168.397Z" fill="#292929"/>
<path d="M475.759 149.004C475.703 149.004 475.647 149.003 475.592 149.002C475.301 148.995 475.07 148.752 475.078 148.461C475.085 148.169 475.297 147.944 475.619 147.945C479.362 148.076 489.419 144.79 495.835 136.866C496.018 136.638 496.351 136.605 496.577 136.787C496.804 136.971 496.839 137.304 496.656 137.53C490.104 145.623 479.785 149.004 475.759 149.004Z" fill="#292929"/>
<path d="M460.271 222.669C460.068 222.669 459.875 222.551 459.787 222.353C456.29 214.4 456.017 206.466 456.017 204.225C456.017 203.933 456.254 203.697 456.545 203.697C456.837 203.697 457.074 203.933 457.074 204.225C457.074 205.784 457.251 213.964 460.755 221.928C460.873 222.195 460.75 222.506 460.484 222.625C460.414 222.654 460.343 222.669 460.271 222.669Z" fill="#292929"/>
<path d="M537.237 232.701C537.008 232.701 536.798 232.551 536.73 232.321C536.682 232.159 531.979 216.063 529.998 209.978C529.908 209.702 530.06 209.404 530.336 209.313C530.619 209.224 530.911 209.375 531.002 209.652C532.989 215.751 537.697 231.862 537.743 232.024C537.825 232.305 537.665 232.598 537.385 232.679C537.335 232.694 537.285 232.701 537.237 232.701Z" fill="#292929"/>
<path d="M502.607 132.521C500.97 132.521 499.079 131.978 497.054 130.917C496.795 130.781 496.695 130.462 496.831 130.204C496.967 129.944 497.288 129.847 497.544 129.981C499.955 131.244 502.118 131.716 503.785 131.342C507.713 130.449 509.345 123.565 509.345 120.079C509.345 119.853 509.49 119.651 509.703 119.578C509.916 119.506 510.154 119.578 510.292 119.757C512.089 122.093 514.202 123.182 516.944 123.182C519.62 123.002 522.204 120.042 522.537 117.712C522.579 117.423 522.852 117.218 523.134 117.264C523.422 117.305 523.624 117.572 523.583 117.862C523.188 120.633 520.217 124.022 516.979 124.237C516.978 124.237 516.976 124.237 516.975 124.237C514.332 124.237 512.159 123.318 510.343 121.434C509.98 125.757 507.944 131.481 504.016 132.372C503.572 132.471 503.102 132.521 502.607 132.521Z" fill="#FEFEFE"/>
<path d="M461.814 1.84022C443.845 1.84022 423.54 4.19984 401.466 8.85252C354.802 18.6902 307.429 37.5143 309.885 102.546C312.38 168.626 336.762 207.965 384.425 222.815C406.305 229.632 443.948 236.511 478.725 236.512C478.729 236.512 478.733 236.512 478.737 236.512C510.093 236.512 550.232 231.013 563.409 204.819C576.674 178.448 578.966 148.073 578.553 127.235C578.078 103.318 573.662 79.0389 567.028 63.8714C559.606 46.9063 539.892 1.84022 461.814 1.84022ZM478.737 237.568C478.731 237.568 478.73 237.568 478.725 237.568C441.447 237.567 404.459 230.163 384.111 223.823C335.967 208.825 311.342 169.168 308.829 102.586C307.661 71.6421 318.218 47.7407 340.21 31.5456C358.414 18.1389 381.281 12.0286 401.247 7.81953C423.393 3.15101 443.771 0.783997 461.814 0.783997C494.35 0.783997 520.396 8.46383 539.232 23.608C554.73 36.0694 562.745 51.4449 567.995 63.4479C574.682 78.7347 579.132 103.168 579.61 127.213C580.025 148.171 577.716 178.729 564.351 205.293C550.934 231.966 510.39 237.568 478.737 237.568Z" fill="#292929"/>
<path d="M356.065 55.4901H314.661C307.464 55.4901 301.964 61.6806 302.404 69.164L303.52 88.1867C303.926 95.1197 309.734 100.557 316.468 100.455L346.426 100.004C347.99 104.652 349.135 109.175 352.132 108.954C354.276 108.744 355.194 104.209 355.804 99.8337C362.088 99.4439 367.262 94.0888 367.498 87.4864L368.172 68.8651C368.437 61.5422 363.031 55.4901 356.065 55.4901Z" fill="#FEFEFE"/>
<path d="M346.427 99.4754C346.654 99.4754 346.855 99.619 346.927 99.8356C347.084 100.299 347.236 100.763 347.386 101.22C348.69 105.19 349.836 108.602 352.092 108.428C354.1 108.23 354.958 102.077 355.282 99.7595C355.317 99.5113 355.522 99.3212 355.772 99.3064C361.828 98.9304 366.747 93.7306 366.97 87.4672L367.644 68.8459C367.772 65.3265 366.504 61.9159 364.164 59.4908C362.004 57.2516 359.129 56.018 356.066 56.018H314.662C311.457 56.018 308.48 57.3034 306.277 59.6377C303.943 62.1145 302.723 65.5758 302.931 69.1331L304.048 88.1558C304.428 94.6463 309.915 99.9275 316.281 99.9275L316.461 99.9264L346.418 99.4754C346.422 99.4754 346.424 99.4754 346.427 99.4754ZM351.923 109.491C348.989 109.491 347.781 105.81 346.382 101.55C346.273 101.214 346.162 100.876 346.049 100.537L316.281 100.984C309.249 100.984 303.413 95.3762 302.994 88.2181L301.877 69.1955C301.652 65.3487 302.976 61.6001 305.51 58.9131C307.912 56.3644 311.162 54.9617 314.662 54.9617H356.066C359.417 54.9617 362.564 56.3095 364.924 58.7578C367.462 61.3878 368.838 65.0793 368.701 68.8839L368.027 87.5052C367.789 94.1562 362.661 99.7036 356.269 100.326C355.597 104.991 354.614 109.241 352.183 109.48C352.088 109.487 352.005 109.491 351.923 109.491Z" fill="#292929"/>
<path d="M322.637 78.5544C322.637 80.8496 320.819 82.7106 318.578 82.7106C316.335 82.7106 314.518 80.8496 314.518 78.5544C314.518 76.2582 316.335 74.3981 318.578 74.3981C320.819 74.3981 322.637 76.2582 322.637 78.5544Z" fill="#40BDDE"/>
<path d="M338.685 78.5544C338.685 80.8496 336.867 82.7106 334.624 82.7106C332.383 82.7106 330.565 80.8496 330.565 78.5544C330.565 76.2582 332.383 74.3981 334.624 74.3981C336.867 74.3981 338.685 76.2582 338.685 78.5544Z" fill="#40BDDE"/>
<path d="M354.731 78.5545C354.731 80.8497 352.914 82.7108 350.672 82.7108C348.429 82.7108 346.611 80.8497 346.611 78.5545C346.611 76.2583 348.429 74.3983 350.672 74.3983C352.914 74.3983 354.731 76.2583 354.731 78.5545Z" fill="#40BDDE"/>
<path d="M489.231 413.201H448.12C447.829 413.201 447.592 412.965 447.592 412.673C447.592 412.381 447.829 412.145 448.12 412.145H489.231C489.523 412.145 489.759 412.381 489.759 412.673C489.759 412.965 489.523 413.201 489.231 413.201Z" fill="#292929"/>
<path d="M367.733 263.562C355.551 257.688 353.258 244.501 371.03 239.484C358.56 224.149 371.172 215.263 379.63 213.542C388.086 211.823 404.855 216.123 421.05 230.025C437.246 243.927 444.269 244.644 449.141 255.537C454.015 266.43 451.721 274.886 446.847 285.922C441.975 296.958 441.401 300.397 450.861 309.283C460.32 318.17 468.059 327.056 461.467 343.825C454.874 360.594 376.046 354.431 372.32 342.964C368.593 331.499 377.479 289.504 377.479 289.504L367.733 263.562Z" fill="#292929"/>
<path d="M358.704 332.214C356.841 324.045 359.004 305.288 375.329 295.953C387.237 289.145 393.532 298.677 393.532 298.677L395.395 330.065C395.395 330.065 362.717 332.358 358.704 332.214Z" fill="#292929"/>
<path d="M266.976 285.062C265.544 283.055 263.397 280.31 261.391 281.743C259.385 283.176 262.579 294.814 271.563 293.374C269.269 289.935 266.976 285.062 266.976 285.062Z" fill="#FEFEFE"/>
<path d="M262.567 281.872C262.265 281.872 261.981 281.971 261.699 282.172C261.306 282.452 261.122 283.962 261.796 286.066C262.864 289.402 265.596 292.968 270.058 292.968H270.059C270.255 292.968 270.456 292.961 270.658 292.948C268.531 289.59 266.52 285.332 266.499 285.286C265.8 284.322 264.051 281.872 262.567 281.872ZM270.059 294.024H270.058C265.023 294.024 261.917 289.91 260.789 286.388C260.204 284.562 259.932 282.137 261.085 281.313C261.546 280.983 262.045 280.816 262.567 280.816C264.349 280.816 265.946 282.709 267.407 284.754C267.478 284.885 269.759 289.715 272.003 293.081C272.104 293.23 272.121 293.42 272.048 293.585C271.976 293.75 271.825 293.867 271.647 293.895C271.111 293.981 270.576 294.024 270.059 294.024Z" fill="#292929"/>
<path d="M292.344 286.351C287.472 284.774 284.318 280.905 285.896 277.751C287.472 274.599 292.632 278.755 296.214 281.621C299.798 284.488 303.238 285.061 303.238 285.061C303.238 285.061 297.934 287.784 292.344 286.351Z" fill="#FEFEFE"/>
<path d="M287.701 277.151C287.077 277.151 286.654 277.417 286.368 277.988C285.902 278.919 285.893 279.937 286.343 281.01C287.194 283.04 289.556 284.894 292.507 285.849C293.512 286.105 294.614 286.24 295.755 286.24C298.153 286.24 300.283 285.645 301.602 285.17C300.221 284.713 298.085 283.794 295.885 282.034C293.27 279.941 289.781 277.151 287.701 277.151ZM295.755 287.296C294.526 287.296 293.335 287.151 292.214 286.863C288.947 285.807 286.337 283.723 285.369 281.418C284.803 280.068 284.822 278.719 285.423 277.515C285.888 276.585 286.676 276.095 287.701 276.095C290.152 276.095 293.658 278.9 296.476 281.154C299.967 283.946 303.292 284.535 303.326 284.541C303.549 284.579 303.724 284.756 303.76 284.981C303.794 285.206 303.681 285.427 303.479 285.53C303.339 285.603 299.992 287.296 295.755 287.296Z" fill="#292929"/>
<path d="M297.457 330.353C297.076 321.943 296.12 305.127 294.783 299.776C293.443 294.426 285.034 295.952 284.461 295.763C283.889 295.572 273.426 299.537 268.266 289.075C263.105 278.611 267.263 274.741 270.129 275.744C271.133 272.305 273.999 273.308 275.575 275.028C277.01 272.018 281.165 275.173 282.168 279.042C283.172 282.912 284.175 286.351 292.2 285.347C300.228 284.344 310.116 282.051 313.986 293.66C317.856 305.27 321.01 323.328 321.01 323.328C321.01 323.328 319.482 334.797 297.457 330.353Z" fill="#FEFEFE"/>
<path d="M297.965 329.916C301.14 330.535 304.058 330.848 306.642 330.848C318.66 330.848 320.323 324.104 320.473 323.329C320.226 321.938 317.159 304.849 313.485 293.828C310.876 286.002 305.503 284.999 301.115 284.999C298.794 284.999 296.391 285.322 294.068 285.635C293.459 285.717 292.857 285.797 292.266 285.871C291.309 285.992 290.417 286.052 289.615 286.052C283.441 286.052 282.494 282.397 281.657 279.175C280.954 276.461 278.726 274.357 277.279 274.357C276.741 274.357 276.34 274.651 276.052 275.255C275.977 275.414 275.827 275.525 275.653 275.55C275.477 275.577 275.305 275.515 275.186 275.385C274.39 274.517 273.381 273.978 272.552 273.978C271.651 273.978 271.007 274.623 270.636 275.892C270.595 276.032 270.499 276.148 270.37 276.214C270.241 276.281 270.09 276.289 269.955 276.243C268.919 275.883 267.758 276.357 267.084 277.442C266.419 278.512 265.25 281.763 268.739 288.842C271.023 293.47 274.668 295.816 279.576 295.816C281.283 295.816 282.72 295.53 283.577 295.358C283.984 295.277 284.229 295.227 284.403 295.227C284.459 295.227 284.574 295.243 284.628 295.261C284.825 295.252 285.041 295.241 285.312 295.226C285.778 295.202 286.395 295.17 287.091 295.17C291.792 295.17 294.551 296.678 295.295 299.649C296.732 305.397 297.681 323.751 297.965 329.916ZM306.642 331.904C303.878 331.904 300.753 331.556 297.353 330.871C297.115 330.822 296.941 330.62 296.929 330.377C296.671 324.691 295.716 305.693 294.27 299.906C293.659 297.465 291.244 296.227 287.091 296.227C286.416 296.227 285.819 296.257 285.367 296.282C284.843 296.308 284.553 296.32 284.376 296.286C284.262 296.294 284.06 296.34 283.784 296.394C282.888 296.573 281.388 296.872 279.576 296.872C274.308 296.872 270.233 294.257 267.793 289.307C264.202 282.027 265.245 278.399 266.186 276.885C267.017 275.55 268.414 274.873 269.785 275.112C270.513 273.22 271.809 272.922 272.552 272.922C273.508 272.922 274.565 273.387 275.475 274.191C275.934 273.613 276.556 273.301 277.279 273.301C279.381 273.301 281.905 275.922 282.679 278.909C283.527 282.175 284.259 284.996 289.615 284.996C290.373 284.996 291.221 284.939 292.135 284.824C292.723 284.751 293.322 284.67 293.927 284.589C296.285 284.271 298.723 283.943 301.115 283.943C305.488 283.943 311.634 284.933 314.488 293.493C318.326 305.007 321.499 323.056 321.53 323.238C321.539 323.29 321.54 323.345 321.533 323.399C321.521 323.484 320.24 331.904 306.642 331.904Z" fill="#292929"/>
<path d="M272.349 294.682C272.236 294.682 272.123 294.646 272.027 294.572C268.781 292.065 266.629 288.317 265.627 283.434C265.568 283.148 265.752 282.869 266.038 282.81C266.328 282.752 266.603 282.936 266.661 283.222C267.611 287.849 269.634 291.387 272.672 293.737C272.904 293.915 272.946 294.246 272.767 294.477C272.664 294.612 272.508 294.682 272.349 294.682Z" fill="#292929"/>
<path d="M285.896 292.756C285.888 292.756 285.88 292.756 285.872 292.756C282.92 292.627 280.475 291.365 278.606 289.002C275.029 284.484 274.624 277.203 275.057 274.929C275.11 274.644 275.384 274.453 275.674 274.51C275.961 274.564 276.149 274.84 276.094 275.128C275.701 277.192 276.116 284.155 279.434 288.346C281.105 290.458 283.286 291.587 285.918 291.7C286.209 291.714 286.435 291.96 286.423 292.25C286.41 292.534 286.177 292.756 285.896 292.756Z" fill="#292929"/>
<path d="M280.307 296.625C280.292 296.625 280.277 296.624 280.262 296.623C277.503 296.393 275.201 295.107 273.419 292.801C269.202 287.342 269.227 277.853 269.609 275.655C269.66 275.366 269.931 275.17 270.221 275.225C270.508 275.274 270.7 275.548 270.651 275.835C270.285 277.933 270.254 286.975 274.255 292.155C275.848 294.217 277.898 295.367 280.35 295.571C280.64 295.594 280.857 295.851 280.833 296.141C280.809 296.417 280.578 296.625 280.307 296.625Z" fill="#292929"/>
<path d="M379.631 339.811C384.36 341.96 398.119 346.834 423.058 340.527C422.198 357.727 420.478 393.988 420.478 393.988C420.478 393.988 399.696 405.741 385.793 400.867C381.924 394.274 379.631 339.811 379.631 339.811Z" fill="#292929"/>
<path d="M383.887 326.202C388.043 325.628 392.529 324.046 392.098 317.166C391.668 310.287 390.522 301.257 390.522 301.257C379.773 301.114 369.166 295.524 364.294 284.488C359.42 273.453 365.87 267.72 369.453 256.253C373.037 244.788 379.773 235.328 394.822 236.332C409.871 237.334 417.896 244.501 417.896 244.501C415.317 257.973 412.737 277.036 418.326 278.183C423.916 279.329 425.35 269.44 425.35 269.44C433.806 265.283 442.664 270.341 439.252 277.752C435.096 286.781 425.206 282.195 425.206 282.195C423.201 287.355 414.744 293.087 414.744 293.087C416.034 303.694 417.317 321.239 425.344 322.241C422.047 339.011 420.334 345.115 420.334 345.115C420.334 345.115 391.525 352.138 381.062 341.818C381.492 338.236 383.887 326.202 383.887 326.202Z" fill="#FEFEFE"/>
<path d="M381.619 341.622C385.334 345.139 391.734 346.919 400.646 346.919C409.583 346.919 418.203 345.06 419.906 344.672C420.277 343.271 421.925 336.844 424.72 322.668C417.439 321.07 415.774 306.615 414.551 295.989C414.438 295.004 414.328 294.052 414.22 293.151C414.195 292.954 414.283 292.761 414.448 292.649C414.53 292.594 422.79 286.949 424.713 282.003C424.766 281.867 424.874 281.76 425.009 281.705C425.144 281.65 425.296 281.655 425.427 281.715C425.452 281.727 427.877 282.831 430.74 282.831C434.451 282.831 437.154 281.048 438.772 277.531C439.753 275.4 439.71 273.397 438.646 271.738C437.335 269.692 434.677 268.471 431.533 268.471C429.644 268.471 427.676 268.928 425.827 269.797C425.552 271.377 424.008 278.803 419.207 278.803C418.886 278.803 418.553 278.768 418.22 278.7C413.511 277.733 413.208 266.296 417.319 244.707C415.922 243.579 408.097 237.746 394.785 236.858C382.281 236.027 374.395 242.209 369.957 256.411C368.93 259.695 367.646 262.567 366.515 265.1C363.646 271.518 361.381 276.586 364.776 284.274C369.191 294.272 379.058 300.576 390.528 300.728C390.791 300.732 391.012 300.928 391.045 301.19C391.057 301.28 392.198 310.315 392.624 317.133C393.076 324.36 388.221 326.076 384.332 326.67C383.939 328.66 382.067 338.197 381.619 341.622ZM400.646 347.976C391.295 347.976 384.581 346.03 380.691 342.195C380.575 342.079 380.519 341.917 380.538 341.756C380.964 338.193 383.27 326.59 383.368 326.098C383.412 325.877 383.591 325.709 383.814 325.679C387.876 325.118 391.974 323.672 391.57 317.199C391.201 311.285 390.29 303.69 390.054 301.775C378.362 301.456 368.333 294.947 363.81 284.701C360.225 276.583 362.574 271.326 365.551 264.669C366.725 262.04 367.94 259.321 368.948 256.095C373.49 241.559 381.942 234.942 394.856 235.804C409.913 236.808 417.914 243.809 418.247 244.106C418.385 244.231 418.45 244.418 418.414 244.599C414.543 264.817 414.549 276.868 418.432 277.665C418.696 277.72 418.957 277.747 419.207 277.747C423.561 277.747 424.815 269.448 424.826 269.364C424.852 269.191 424.96 269.043 425.116 268.967C427.181 267.952 429.4 267.415 431.533 267.415C435.039 267.415 438.03 268.818 439.536 271.168C440.784 273.118 440.854 275.534 439.731 277.972C437.481 282.861 433.599 283.887 430.74 283.887C428.408 283.887 426.392 283.23 425.488 282.882C423.356 287.526 416.743 292.334 415.305 293.34C415.403 294.148 415.501 294.995 415.601 295.869C416.815 306.412 418.476 320.851 425.408 321.717C425.553 321.735 425.685 321.813 425.771 321.931C425.856 322.049 425.89 322.198 425.86 322.343C422.598 338.942 420.859 345.196 420.841 345.257C420.789 345.441 420.644 345.583 420.458 345.628C420.362 345.651 410.707 347.976 400.646 347.976Z" fill="#292929"/>
<path d="M380.488 278.137C380.4 278.137 380.31 278.115 380.228 278.068C377.204 276.345 375.618 274.657 375.38 272.906C375.087 270.733 376.849 268.967 378.552 267.258C378.886 266.924 379.218 266.591 379.53 266.258C382.32 263.288 382.024 257.875 380.569 254.101C379.946 252.484 378.891 251.526 377.439 251.255C375.521 250.903 373.452 251.851 372.472 252.93C372.276 253.146 371.942 253.162 371.726 252.966C371.509 252.77 371.495 252.436 371.69 252.22C372.892 250.898 375.317 249.791 377.633 250.216C378.896 250.452 380.602 251.252 381.555 253.722C383.178 257.928 383.419 263.66 380.299 266.982C379.981 267.321 379.641 267.661 379.3 268.003C377.778 269.531 376.204 271.11 376.427 272.765C376.615 274.147 378.069 275.622 380.749 277.15C381.004 277.294 381.091 277.617 380.948 277.87C380.85 278.041 380.672 278.137 380.488 278.137Z" fill="#292929"/>
<path d="M406.383 260.27C406.213 260.27 406.046 260.187 405.945 260.035C400.372 251.724 394.45 252.869 391.414 254.296C391.153 254.419 390.838 254.306 390.712 254.041C390.588 253.777 390.702 253.462 390.966 253.339C393.658 252.079 400.589 250.148 406.821 259.448C406.984 259.69 406.92 260.018 406.677 260.18C406.587 260.241 406.485 260.27 406.383 260.27Z" fill="#292929"/>
<path d="M397.874 267.785C397.315 269.572 396.036 270.765 395.017 270.448C393.999 270.129 393.626 268.421 394.184 266.633C394.74 264.845 396.021 263.653 397.038 263.973C398.057 264.291 398.432 265.995 397.874 267.785Z" fill="#292929"/>
<path d="M397.306 265.142C397.078 265.142 396.867 264.994 396.8 264.764L395.843 261.515C395.761 261.234 395.921 260.942 396.2 260.859C396.484 260.778 396.775 260.935 396.856 261.216L397.813 264.465C397.895 264.745 397.735 265.039 397.456 265.121C397.405 265.136 397.356 265.142 397.306 265.142Z" fill="#292929"/>
<path d="M376.998 263.867C376.439 265.654 375.16 266.847 374.14 266.53C373.122 266.212 372.749 264.503 373.306 262.716C373.865 260.927 375.145 259.735 376.162 260.055C377.179 260.373 377.556 262.078 376.998 263.867Z" fill="#292929"/>
<path d="M376.429 261.224C376.202 261.224 375.99 261.077 375.923 260.846L374.967 257.596C374.885 257.315 375.044 257.023 375.325 256.94C375.602 256.857 375.899 257.016 375.98 257.297L376.936 260.548C377.018 260.827 376.859 261.121 376.579 261.203C376.528 261.218 376.479 261.224 376.429 261.224Z" fill="#292929"/>
<path d="M376.839 281.213C376.827 283.927 377.318 285.87 378.271 286.868C380.281 288.964 384.754 286.821 389.537 281.779C384.422 282.781 379.279 282.488 376.839 281.213ZM380.279 288.739C379.166 288.739 378.233 288.356 377.508 287.597C376.224 286.257 375.652 283.772 375.807 280.214C375.816 280.009 375.943 279.828 376.132 279.75C376.321 279.67 376.539 279.708 376.691 279.847C377.447 280.54 379.669 281.347 383.436 281.347C385.787 281.347 388.376 281.017 390.923 280.393C391.151 280.338 391.382 280.435 391.501 280.632C391.62 280.829 391.598 281.08 391.446 281.254C387.265 286.011 383.195 288.739 380.279 288.739Z" fill="#292929"/>
<path d="M378.054 287.788C377.964 287.788 377.874 287.764 377.791 287.717C377.538 287.572 377.45 287.249 377.596 286.997C378.838 284.836 383.883 283.488 386.895 284.508C387.171 284.602 387.32 284.902 387.226 285.178C387.133 285.455 386.83 285.601 386.556 285.509C383.83 284.584 379.433 285.92 378.512 287.523C378.413 287.693 378.236 287.788 378.054 287.788Z" fill="#292929"/>
<path d="M390.297 301.833C389.987 301.83 389.707 301.615 389.708 301.303C389.71 301.011 389.945 300.777 390.237 300.777C390.26 300.774 390.279 300.777 390.299 300.777C395.651 300.777 404.276 297.69 410.053 294.628C410.311 294.491 410.631 294.589 410.767 294.847C410.904 295.106 410.806 295.425 410.548 295.561C404.654 298.684 395.822 301.833 390.297 301.833Z" fill="#292929"/>
<path d="M297.075 327.916C299.511 328.775 311.407 328.775 321.01 323.328C322.586 332.072 328.462 358.156 328.462 358.156C336.632 349.27 347.954 338.809 353.114 334.365C358.274 329.921 366.157 325.621 373.896 325.909C381.636 326.195 385.648 325.765 385.648 325.765C385.648 325.765 379.486 336.658 382.639 366.899C385.792 397.141 386.795 401.153 386.795 401.153L376.19 400.151C376.19 400.151 378.339 393.414 371.89 385.675C365.44 377.934 363.576 373.062 362.717 367.329C355.837 374.353 337.492 393.844 322.156 393.988C306.821 394.131 301.374 380.372 299.225 363.173C297.075 345.974 297.075 327.916 297.075 327.916Z" fill="#40BDDE"/>
<path d="M415.177 393.8C410.877 395.089 392.385 400.581 383.929 400.007C375.473 399.434 366.73 395.276 359.85 396.997C352.971 398.716 341.171 407.388 342.007 410.827C342.651 413.479 345.804 412.046 345.804 412.046C346.951 414.483 349.244 413.192 349.244 413.192C350.391 415.63 355.695 414.196 358.848 411.472C362 408.749 365.869 407.316 370.744 409.037C375.616 410.756 383.212 413.192 392.098 413.623C400.985 414.053 421.911 413.076 421.911 413.076C421.911 413.076 425.066 400.679 415.177 393.8Z" fill="#FEFEFE"/>
<path d="M349.245 412.665C349.3 412.665 349.355 412.674 349.407 412.692C349.546 412.736 349.661 412.835 349.722 412.967C350.09 413.749 351.044 413.913 351.78 413.913C353.804 413.913 356.568 412.746 358.503 411.074C362.319 407.777 366.41 406.947 370.92 408.539C376.318 410.444 383.606 412.683 392.125 413.096C393.616 413.168 395.556 413.204 397.892 413.204C406.787 413.204 419.1 412.674 421.48 412.567C421.887 410.483 423.366 400.323 415.083 394.38C406.747 396.871 391.43 401.048 383.894 400.534C380.534 400.306 377.138 399.522 373.855 398.763C370.177 397.914 366.702 397.111 363.499 397.111C362.203 397.111 361.052 397.242 359.978 397.51C353.059 399.238 341.801 407.746 342.52 410.703C342.72 411.522 343.204 411.906 344.046 411.906C344.824 411.906 345.58 411.569 345.587 411.565C345.851 411.45 346.161 411.561 346.282 411.822C346.658 412.618 347.185 413.006 347.893 413.006C348.481 413.006 348.983 412.734 348.988 412.732C349.068 412.687 349.155 412.665 349.245 412.665ZM351.78 414.969C350.277 414.969 349.468 414.433 349.033 413.858C348.742 413.96 348.339 414.063 347.893 414.063C347.191 414.063 346.249 413.813 345.56 412.702C345.186 412.823 344.63 412.962 344.046 412.962C342.716 412.962 341.809 412.248 341.493 410.952C340.495 406.844 353.118 398.136 359.723 396.485C360.88 396.197 362.115 396.055 363.499 396.055C366.824 396.055 370.355 396.87 374.093 397.734C377.336 398.484 380.69 399.259 383.965 399.48C391.405 399.994 406.824 395.754 415.026 393.294C415.18 393.249 415.348 393.275 415.479 393.367C425.552 400.374 422.456 413.079 422.423 413.206C422.367 413.432 422.168 413.593 421.936 413.603C421.795 413.611 407.755 414.26 397.893 414.26C397.892 414.26 397.893 414.26 397.892 414.26C395.538 414.26 393.581 414.223 392.073 414.15C383.418 413.731 376.034 411.464 370.569 409.535C366.421 408.073 362.719 408.827 359.194 411.873C357.082 413.696 354.034 414.969 351.78 414.969Z" fill="#292929"/>
<path d="M439.682 388.971L440.685 376.932L443.982 388.111L439.682 388.971ZM480.099 383.668C473.793 366.756 468.347 348.411 463.187 340.097C458.027 331.785 451.864 324.046 440.399 322.899C432.087 322.325 424.633 322.039 424.633 322.039C421.91 329.205 413.167 363.89 417.754 392.985C415.747 392.985 414.314 394.131 414.314 394.131C418.9 397.858 421.48 404.594 420.334 413.623C440.255 415.199 461.324 412.046 468.203 410.326C475.083 408.607 486.406 400.581 480.099 383.668Z" fill="#40BDDE"/>
<path d="M289.381 285.968C289.104 285.968 288.872 285.752 288.854 285.472C288.836 285.182 289.057 284.932 289.348 284.913C290.332 284.851 291.517 284.739 292.809 284.618C297.14 284.208 302.531 283.702 305.752 284.532C306.035 284.605 306.204 284.894 306.132 285.176C306.058 285.458 305.772 285.628 305.488 285.556C302.441 284.768 297.156 285.269 292.907 285.669C291.604 285.791 290.407 285.905 289.414 285.967C289.403 285.968 289.391 285.968 289.381 285.968Z" fill="#292929"/>
<path d="M363.145 370.294C362.899 370.294 362.679 370.12 362.629 369.869C361.671 365.074 362.742 358.926 364.23 354.961C364.331 354.688 364.638 354.545 364.909 354.653C365.183 354.754 365.321 355.059 365.218 355.332C364.149 358.186 362.615 364.416 363.664 369.662C363.721 369.948 363.536 370.227 363.25 370.283C363.215 370.29 363.18 370.294 363.145 370.294Z" fill="#292929"/>
<path d="M414.632 394.275C414.399 394.275 414.186 394.119 414.122 393.882C414.048 393.601 414.216 393.311 414.497 393.237C419.133 392.01 448.173 386.312 458.413 385.435C458.698 385.409 458.958 385.625 458.984 385.915C459.009 386.207 458.793 386.462 458.504 386.487C448.307 387.361 419.385 393.035 414.768 394.258C414.722 394.27 414.677 394.275 414.632 394.275Z" fill="#292929"/>
<path d="M441.402 379.324C441.178 379.324 440.971 379.18 440.899 378.956C439.862 375.714 437.312 365.488 436.087 360.573L435.73 359.144C435.66 358.862 435.831 358.575 436.114 358.504C436.393 358.434 436.683 358.606 436.755 358.889L437.112 360.318C438.334 365.221 440.879 375.426 441.905 378.635C441.994 378.912 441.84 379.211 441.562 379.299C441.509 379.315 441.455 379.324 441.402 379.324Z" fill="#292929"/>
<path d="M349.245 413.721C349.229 413.721 349.212 413.72 349.196 413.719C348.906 413.692 348.692 413.436 348.718 413.145C348.892 411.226 356.61 404.786 363.575 402.797C363.858 402.713 364.148 402.88 364.228 403.158C364.308 403.439 364.146 403.732 363.865 403.812C356.857 405.814 349.883 411.998 349.77 413.24C349.746 413.515 349.514 413.721 349.245 413.721Z" fill="#292929"/>
<path d="M345.804 412.575C345.513 412.575 345.276 412.339 345.276 412.047C345.276 409.292 351.06 403.482 360.122 400.649C360.407 400.561 360.697 400.718 360.785 400.996C360.871 401.274 360.716 401.57 360.438 401.657C351.132 404.565 346.332 410.258 346.332 412.047C346.332 412.339 346.097 412.575 345.804 412.575Z" fill="#292929"/>
<path d="M383.206 411.635H337.946L319.732 358.439C318.142 353.8 312.831 350.004 307.928 350.004H230.635C225.734 350.004 223.022 353.8 224.609 358.439L243.372 413.237C245.424 418.557 245.665 422.936 250.999 422.936H383.206C386.326 422.936 388.857 420.406 388.857 417.283C388.857 414.163 386.326 411.635 383.206 411.635Z" fill="#FAAD3A"/>
<path d="M333.956 413.144H244.061C243.77 413.144 243.533 412.908 243.533 412.616C243.533 412.324 243.77 412.088 244.061 412.088H333.956C334.247 412.088 334.484 412.324 334.484 412.616C334.484 412.908 334.247 413.144 333.956 413.144Z" fill="#292929"/>
<path d="M275.236 377.654C273.906 377.654 272.806 378.181 272.057 379.179C270.971 380.622 270.748 382.829 271.444 385.235C272.698 389.578 276.54 393.112 280.006 393.112C281.335 393.112 282.433 392.584 283.183 391.585C284.269 390.14 284.492 387.934 283.796 385.53C282.545 381.187 278.705 377.654 275.236 377.654ZM280.006 394.168C276.101 394.168 271.805 390.292 270.429 385.528C269.64 382.801 269.926 380.256 271.212 378.545C272.156 377.288 273.585 376.597 275.236 376.597C279.143 376.597 283.439 380.474 284.811 385.237C285.6 387.962 285.315 390.508 284.027 392.22C283.083 393.476 281.656 394.168 280.006 394.168Z" fill="#292929"/>
</svg>
